# xmcd
#
# Track frame offsets: 
#        150
#        19538
#        45510
#        81346
#        95732
#        114860
#        141828
#        172505
#        194732
#
# Disc length: 3009 seconds
#
# Revision: 0
# Processed by: cddbd v1.5.2PL0 Copyright (c) Steve Scherf et al.
# Submitted via: ExactAudioCopy v1.3
#
DISCID=6b0bbf09
DTITLE=Doug Duffey and Badd - Play The Blues
DYEAR=2019
DGENRE=Blues
TTITLE0=The Things We Used to Do
TTITLE1=Evil
TTITLE2=Big Easy Street Blues
TTITLE3=Have You Ever?
TTITLE4=Drink It on Down
TTITLE5=My Drivin' Wheel
TTITLE6=Talk of the Town
TTITLE7=You Got That Somethin'
TTITLE8=A Memory Left to Lose
EXTD=
EXTT0=
EXTT1=
EXTT2=
EXTT3=
EXTT4=
EXTT5=
EXTT6=
EXTT7=
EXTT8=
PLAYORDER=
